<svg width="3007" height="826" viewBox="0 0 3007 826" fill="none" xmlns="http://www.w3.org/2000/svg">
<path d="M408.971 1.70477C341.912 4.6524 289.038 17.7327 235.795 43.8933C151.787 85.5292 85.4642 152.404 43.2756 238.255C3.48205 319.132 -9.04555 406.641 6.42973 496.177C27.4319 617.952 107.756 727.385 222.347 789.839L236.532 797.576L241.875 789.654C248.139 780.627 275.589 737.517 325.147 659.22C344.122 629.375 369.178 589.95 380.784 571.711C422.973 505.572 462.766 442.566 468.109 433.539L473.451 424.327L474.004 624.585L474.373 825.026H543.09H611.992L613.097 758.335C613.834 721.674 614.387 652.219 614.387 603.951V516.074L544.38 469.463L474.373 422.853L470.32 426.354C465.714 430.407 418.551 473.516 353.702 533.023C329.568 555.314 305.25 577.606 299.907 582.396C288.485 592.897 289.038 593.081 270.431 574.106C253.481 556.972 246.112 547.393 235.795 529.154C202.818 471.49 198.765 403.509 224.557 339.397C242.059 295.551 283.142 250.967 323.673 231.807L335.279 226.281L336.2 278.602L337.122 330.923L403.997 375.506C440.843 400.009 471.241 419.721 471.793 419.353C472.162 418.8 473.083 324.843 473.82 210.253L474.925 2.07324L462.213 0.967834C455.213 0.230896 447.107 -0.137512 443.975 0.0466919C441.027 0.0466919 425.183 0.78363 408.971 1.70477Z" fill="white"/>
<path d="M710.739 45.1823C708.712 47.9458 689.921 78.1594 668.735 112.058C647.732 145.956 610.702 205.278 586.753 243.782C562.803 282.286 531.299 332.765 516.745 356.162C502.191 379.375 487.084 403.324 483.031 409.404C478.978 415.299 476.583 419.905 477.504 419.537C478.61 419.168 515.824 384.349 560.223 342.16C604.807 300.156 645.153 262.02 649.943 257.599L658.786 249.493L672.419 263.679C715.713 308.446 736.9 356.346 741.505 419.721C742.611 433.907 743.348 526.021 743.348 634.348L743.163 824.105L833.067 824.657C882.441 825.026 928.13 824.657 934.578 824.105L946 822.815V603.398C946 395.771 945.816 382.507 942.5 359.478C924.814 239.729 858.123 135.639 753.48 64.3422C743.348 57.3415 730.452 49.0511 724.556 45.9193L714.239 40.0239L710.739 45.1823Z" fill="white"/>
<path d="M1318.5 155C1309.17 143.667 1300.17 136.167 1291.5 132.5C1282.83 128.5 1274.17 126.5 1265.5 126.5C1243.83 126.5 1228 136.667 1218 157C1208.33 177 1203.5 204.833 1203.5 240.5C1203.5 257.5 1204.5 273.167 1206.5 287.5C1208.83 301.5 1212.67 313.5 1218 323.5C1223.33 333.5 1230.33 341.333 1239 347C1248 352.667 1259.17 355.5 1272.5 355.5C1284.17 355.5 1295.5 354.167 1306.5 351.5C1317.83 348.5 1328.17 345.167 1337.5 341.5L1355.5 397.5C1345.17 401.833 1332.17 405.667 1316.5 409C1300.83 412.333 1282.83 414 1262.5 414C1211.17 414 1173.67 399.5 1150 370.5C1126.33 341.167 1114.5 299.667 1114.5 246C1114.5 220 1117.5 196.167 1123.5 174.5C1129.83 152.833 1139.17 134.167 1151.5 118.5C1164.17 102.5 1179.83 90.1667 1198.5 81.5C1217.5 72.5 1239.83 68 1265.5 68C1278.83 68 1290.5 69.1666 1300.5 71.5C1310.83 73.8333 1319.83 77 1327.5 81C1335.17 84.6666 1341.83 89 1347.5 94C1353.5 99 1358.83 104.167 1363.5 109.5L1318.5 155ZM1519.98 232C1516.32 232 1512.32 233 1507.98 235C1503.65 237 1499.48 240.167 1495.48 244.5C1491.48 248.5 1488.15 253.833 1485.48 260.5C1482.82 266.833 1481.48 274.5 1481.48 283.5V411H1402.48V281C1402.48 261 1400.98 244.5 1397.98 231.5C1395.32 218.167 1392.15 207.333 1388.48 199C1384.48 189.667 1379.98 182.167 1374.98 176.5L1438.48 156.5C1441.15 159.833 1443.98 163.667 1446.98 168C1449.32 171.667 1451.82 176.333 1454.48 182C1457.15 187.667 1459.32 194.167 1460.98 201.5C1469.32 185.5 1479.15 174 1490.48 167C1502.15 160 1515.82 156.5 1531.48 156.5C1538.48 156.5 1544.65 157.167 1549.98 158.5C1555.65 159.5 1560.32 160.667 1563.98 162L1543.48 237.5C1541.15 236.167 1537.98 235 1533.98 234C1530.32 232.667 1525.65 232 1519.98 232ZM1564.07 292.5C1564.07 270.167 1567.23 250.5 1573.57 233.5C1580.23 216.167 1589.23 201.833 1600.57 190.5C1612.23 178.833 1625.73 170 1641.07 164C1656.4 158 1673.07 155 1691.07 155C1706.73 155 1720.07 157 1731.07 161C1742.07 164.667 1751.07 170 1758.07 177C1765.07 183.667 1770.23 191.667 1773.57 201C1776.9 210 1778.57 219.833 1778.57 230.5C1778.57 242.5 1775.57 253.833 1769.57 264.5C1763.57 275.167 1754.9 284.667 1743.57 293C1732.57 301 1719.07 307.667 1703.07 313C1687.4 318.333 1669.57 321.833 1649.57 323.5C1651.9 333.5 1656.07 341.667 1662.07 348C1668.4 354 1677.9 357 1690.57 357C1697.9 357 1705.73 356.167 1714.07 354.5C1722.4 352.833 1730.07 351 1737.07 349C1745.4 346.667 1753.57 344 1761.57 341L1776.57 393C1767.57 397.333 1757.73 401.167 1747.07 404.5C1738.07 407.167 1727.57 409.667 1715.57 412C1703.9 414.333 1691.4 415.5 1678.07 415.5C1657.73 415.5 1640.23 412.5 1625.57 406.5C1611.23 400.5 1599.4 392.167 1590.07 381.5C1581.07 370.833 1574.4 358 1570.07 343C1566.07 327.667 1564.07 310.833 1564.07 292.5ZM1681.07 211.5C1674.73 211.5 1669.23 213.333 1664.57 217C1660.23 220.667 1656.73 225.5 1654.07 231.5C1651.4 237.5 1649.4 244.167 1648.07 251.5C1646.73 258.833 1645.9 266 1645.57 273C1655.57 272.667 1663.9 271.167 1670.57 268.5C1677.57 265.833 1683.23 262.5 1687.57 258.5C1691.9 254.5 1695.07 250.167 1697.07 245.5C1699.07 240.833 1700.07 236.5 1700.07 232.5C1700.07 226.167 1698.23 221.167 1694.57 217.5C1691.23 213.5 1686.73 211.5 1681.07 211.5ZM2028.32 290.5C2028.32 310.5 2029.66 327.167 2032.32 340.5C2034.99 353.833 2038.16 364.5 2041.82 372.5C2045.82 382.167 2050.49 389.667 2055.82 395L1992.32 415C1988.66 411.667 1985.32 407.5 1982.32 402.5C1979.66 398.167 1976.99 393 1974.32 387C1971.99 380.667 1969.99 373.333 1968.32 365C1962.66 380.667 1954.32 392.833 1943.32 401.5C1932.32 409.833 1917.82 414 1899.82 414C1883.49 414 1869.16 411 1856.82 405C1844.82 399 1834.82 390.667 1826.82 380C1818.82 369 1812.82 355.833 1808.82 340.5C1805.16 325.167 1803.32 308.167 1803.32 289.5C1803.32 270.5 1806.32 252.833 1812.32 236.5C1818.66 220.167 1827.32 206.167 1838.32 194.5C1849.32 182.5 1862.49 173.167 1877.82 166.5C1893.16 159.833 1910.16 156.5 1928.82 156.5C1939.16 156.5 1950.16 157.333 1961.82 159C1973.49 160.333 1984.16 162 1993.82 164C2003.49 165.667 2011.49 167.333 2017.82 169C2024.49 170.333 2027.99 171 2028.32 171V290.5ZM1912.82 356C1917.82 356 1922.49 353.833 1926.82 349.5C1931.49 345.167 1935.49 339.333 1938.82 332C1942.16 324.667 1944.66 316.333 1946.32 307C1948.32 297.333 1949.32 287.167 1949.32 276.5V218.5C1946.99 217.5 1943.66 216.667 1939.32 216C1935.32 215 1931.82 214.5 1928.82 214.5C1920.82 214.5 1914.16 216.333 1908.82 220C1903.49 223.333 1899.16 228.167 1895.82 234.5C1892.82 240.5 1890.66 247.833 1889.32 256.5C1887.99 265.167 1887.32 274.5 1887.32 284.5C1887.32 293.833 1887.49 302.833 1887.82 311.5C1888.16 319.833 1889.16 327.333 1890.82 334C1892.82 340.667 1895.49 346 1898.82 350C1902.16 354 1906.82 356 1912.82 356ZM2066.8 162H2107.8L2116.3 110.5L2184.8 95.5V162H2243.8L2234.3 220H2184.8V331.5C2184.8 346.167 2192.46 353.5 2207.8 353.5C2216.13 353.5 2224.13 352.667 2231.8 351C2235.8 350 2239.8 349 2243.8 348L2257.3 401C2250.63 403.333 2241.3 406 2229.3 409C2217.63 411.667 2203.3 413 2186.3 413C2161.3 413 2141.63 407.833 2127.3 397.5C2113.3 387.167 2106.3 369.667 2106.3 345V220H2066.8V162ZM2347.1 413C2328.1 413 2312.76 408.167 2301.1 398.5C2289.43 388.5 2283.6 374.5 2283.6 356.5V160H2362.6V334C2362.6 341.667 2363.76 346.833 2366.1 349.5C2368.43 352.167 2371.93 353.5 2376.6 353.5C2379.26 353.5 2381.93 353.333 2384.6 353C2387.26 352.333 2388.93 351.833 2389.6 351.5L2396.6 401C2396.26 401.333 2394.76 402.167 2392.1 403.5C2389.43 404.5 2385.93 405.833 2381.6 407.5C2377.26 408.833 2372.1 410 2366.1 411C2360.1 412.333 2353.76 413 2347.1 413ZM2324.1 39.5C2338.1 39.5 2348.76 43.6666 2356.1 52C2363.43 60.3333 2367.1 70.8333 2367.1 83.5C2367.1 96.5 2363.26 107.333 2355.6 116C2348.26 124.667 2337.1 129 2322.1 129C2308.1 129 2297.26 124.833 2289.6 116.5C2282.26 107.833 2278.6 97.6667 2278.6 86C2278.6 72.6666 2282.43 61.6666 2290.1 53C2297.76 44 2309.1 39.5 2324.1 39.5ZM2638.18 160C2639.51 165.333 2640.84 174 2642.18 186C2643.51 198 2644.18 210.5 2644.18 223.5C2644.18 258.167 2641.34 287.667 2635.68 312C2630.34 336 2622.18 355.667 2611.18 371C2600.18 386 2586.18 397 2569.18 404C2552.51 410.667 2532.68 414 2509.68 414C2481.01 414 2459.84 405.833 2446.18 389.5C2432.84 373.167 2426.18 351.5 2426.18 324.5V160H2505.18V323C2505.18 332.667 2506.51 341 2509.18 348C2511.84 354.667 2516.51 358 2523.18 358C2531.18 358 2537.84 354.167 2543.18 346.5C2548.51 338.5 2552.68 328.333 2555.68 316C2559.01 303.333 2561.34 289.333 2562.68 274C2564.34 258.333 2565.18 242.833 2565.18 227.5C2565.18 210.833 2564.34 197.167 2562.68 186.5C2561.34 175.5 2560.18 166.667 2559.18 160H2638.18ZM2676.37 292.5C2676.37 270.167 2679.54 250.5 2685.87 233.5C2692.54 216.167 2701.54 201.833 2712.87 190.5C2724.54 178.833 2738.04 170 2753.37 164C2768.7 158 2785.37 155 2803.37 155C2819.04 155 2832.37 157 2843.37 161C2854.37 164.667 2863.37 170 2870.37 177C2877.37 183.667 2882.54 191.667 2885.87 201C2889.2 210 2890.87 219.833 2890.87 230.5C2890.87 242.5 2887.87 253.833 2881.87 264.5C2875.87 275.167 2867.2 284.667 2855.87 293C2844.87 301 2831.37 307.667 2815.37 313C2799.7 318.333 2781.87 321.833 2761.87 323.5C2764.2 333.5 2768.37 341.667 2774.37 348C2780.7 354 2790.2 357 2802.87 357C2810.2 357 2818.04 356.167 2826.37 354.5C2834.7 352.833 2842.37 351 2849.37 349C2857.7 346.667 2865.87 344 2873.87 341L2888.87 393C2879.87 397.333 2870.04 401.167 2859.37 404.5C2850.37 407.167 2839.87 409.667 2827.87 412C2816.2 414.333 2803.7 415.5 2790.37 415.5C2770.04 415.5 2752.54 412.5 2737.87 406.5C2723.54 400.5 2711.7 392.167 2702.37 381.5C2693.37 370.833 2686.7 358 2682.37 343C2678.37 327.667 2676.37 310.833 2676.37 292.5ZM2793.37 211.5C2787.04 211.5 2781.54 213.333 2776.87 217C2772.54 220.667 2769.04 225.5 2766.37 231.5C2763.7 237.5 2761.7 244.167 2760.37 251.5C2759.04 258.833 2758.2 266 2757.87 273C2767.87 272.667 2776.2 271.167 2782.87 268.5C2789.87 265.833 2795.54 262.5 2799.87 258.5C2804.2 254.5 2807.37 250.167 2809.37 245.5C2811.37 240.833 2812.37 236.5 2812.37 232.5C2812.37 226.167 2810.54 221.167 2806.87 217.5C2803.54 213.5 2799.04 211.5 2793.37 211.5ZM1340.5 786H1278L1236.5 690C1235.5 687.333 1233.5 682.5 1230.5 675.5C1227.83 668.167 1224.67 660 1221 651C1217.67 641.667 1214.17 632.167 1210.5 622.5C1206.83 612.833 1203.5 604 1200.5 596C1200.5 604.667 1200.5 614.667 1200.5 626C1200.5 637.333 1200.5 648.833 1200.5 660.5C1200.5 672.167 1200.33 683.167 1200 693.5C1200 703.833 1199.83 712 1199.5 718L1197 786H1121L1141 447.5H1212L1290 642.5C1292.33 648.5 1295.33 657 1299 668C1303 678.667 1306.83 690.333 1310.5 703C1314.17 690.667 1317.83 679.167 1321.5 668.5C1325.5 657.5 1328.83 648.833 1331.5 642.5L1409.5 447.5H1479L1499 786H1421.5L1418.5 718C1418.17 711.667 1417.83 703.333 1417.5 693C1417.5 682.667 1417.5 671.833 1417.5 660.5C1417.5 648.833 1417.5 637.333 1417.5 626C1417.83 614.333 1418 604.333 1418 596C1415.33 603 1412.33 611 1409 620C1406 628.667 1402.83 637.167 1399.5 645.5C1396.17 653.833 1393 661.667 1390 669C1387 676 1384.67 681.5 1383 685.5L1340.5 786ZM1760.75 665.5C1760.75 685.5 1762.08 702.167 1764.75 715.5C1767.41 728.833 1770.58 739.5 1774.25 747.5C1778.25 757.167 1782.91 764.667 1788.25 770L1724.75 790C1721.08 786.667 1717.75 782.5 1714.75 777.5C1712.08 773.167 1709.41 768 1706.75 762C1704.41 755.667 1702.41 748.333 1700.75 740C1695.08 755.667 1686.75 767.833 1675.75 776.5C1664.75 784.833 1650.25 789 1632.25 789C1615.91 789 1601.58 786 1589.25 780C1577.25 774 1567.25 765.667 1559.25 755C1551.25 744 1545.25 730.833 1541.25 715.5C1537.58 700.167 1535.75 683.167 1535.75 664.5C1535.75 645.5 1538.75 627.833 1544.75 611.5C1551.08 595.167 1559.75 581.167 1570.75 569.5C1581.75 557.5 1594.91 548.167 1610.25 541.5C1625.58 534.833 1642.58 531.5 1661.25 531.5C1671.58 531.5 1682.58 532.333 1694.25 534C1705.91 535.333 1716.58 537 1726.25 539C1735.91 540.667 1743.91 542.333 1750.25 544C1756.91 545.333 1760.41 546 1760.75 546V665.5ZM1645.25 731C1650.25 731 1654.91 728.833 1659.25 724.5C1663.91 720.167 1667.91 714.333 1671.25 707C1674.58 699.667 1677.08 691.333 1678.75 682C1680.75 672.333 1681.75 662.167 1681.75 651.5V593.5C1679.41 592.5 1676.08 591.667 1671.75 591C1667.75 590 1664.25 589.5 1661.25 589.5C1653.25 589.5 1646.58 591.333 1641.25 595C1635.91 598.333 1631.58 603.167 1628.25 609.5C1625.25 615.5 1623.08 622.833 1621.75 631.5C1620.41 640.167 1619.75 649.5 1619.75 659.5C1619.75 668.833 1619.91 677.833 1620.25 686.5C1620.58 694.833 1621.58 702.333 1623.25 709C1625.25 715.667 1627.91 721 1631.25 725C1634.58 729 1639.25 731 1645.25 731ZM1996.72 790L1993.72 786.5C1991.72 784.5 1989.39 781.333 1986.72 777C1984.05 772.667 1981.39 767.5 1978.72 761.5C1976.05 755.167 1974.05 748 1972.72 740C1967.05 755.667 1958.72 767.833 1947.72 776.5C1936.72 784.833 1922.22 789 1904.22 789C1887.89 789 1873.55 786 1861.22 780C1849.22 774 1839.22 765.667 1831.22 755C1823.22 744 1817.22 730.833 1813.22 715.5C1809.55 700.167 1807.72 683.167 1807.72 664.5C1807.72 645.5 1810.72 627.833 1816.72 611.5C1823.05 595.167 1831.72 581.167 1842.72 569.5C1853.72 557.5 1866.89 548.167 1882.22 541.5C1897.55 534.833 1914.55 531.5 1933.22 531.5C1936.22 531.5 1939.39 531.667 1942.72 532C1946.39 532.333 1950.05 532.667 1953.72 533V424L2032.72 437V665.5C2032.72 685.167 2034.05 701.667 2036.72 715C2039.72 728.333 2042.89 739.167 2046.22 747.5C2049.55 755.5 2052.72 761.167 2055.72 764.5L2060.22 770L1996.72 790ZM1917.22 731C1922.22 731 1926.89 728.833 1931.22 724.5C1935.89 720.167 1939.89 714.333 1943.22 707C1946.55 699.667 1949.05 691.333 1950.72 682C1952.72 672.333 1953.72 662.167 1953.72 651.5V593.5C1951.39 592.5 1948.05 591.667 1943.72 591C1939.72 590 1936.22 589.5 1933.22 589.5C1925.22 589.5 1918.55 591.333 1913.22 595C1907.89 598.333 1903.55 603.167 1900.22 609.5C1897.22 615.5 1895.05 622.833 1893.72 631.5C1892.39 640.167 1891.72 649.5 1891.72 659.5C1891.72 668.833 1891.89 677.833 1892.22 686.5C1892.55 694.833 1893.55 702.333 1895.22 709C1897.22 715.667 1899.89 721 1903.22 725C1906.55 729 1911.22 731 1917.22 731ZM2239.19 786V630C2239.19 618.333 2237.69 609 2234.69 602C2232.02 594.667 2226.86 591 2219.19 591C2209.86 591 2201.19 597.167 2193.19 609.5C2185.19 621.5 2181.19 638.5 2181.19 660.5V786H2102.19V656C2102.19 636 2100.69 619.5 2097.69 606.5C2095.02 593.167 2091.86 582.333 2088.19 574C2084.19 564.667 2079.69 557.167 2074.69 551.5L2138.19 531.5C2141.19 534.833 2144.19 538.667 2147.19 543C2149.86 546.667 2152.36 551.5 2154.69 557.5C2157.36 563.167 2159.52 569.667 2161.19 577C2169.86 561.333 2181.69 549.833 2196.69 542.5C2212.02 535.167 2228.69 531.5 2246.69 531.5C2272.69 531.5 2291.19 539.5 2302.19 555.5C2313.19 571.167 2318.69 592.167 2318.69 618.5V786H2239.19ZM2358.01 667.5C2358.01 645.167 2361.18 625.5 2367.51 608.5C2374.18 591.167 2383.18 576.833 2394.51 565.5C2406.18 553.833 2419.68 545 2435.01 539C2450.35 533 2467.01 530 2485.01 530C2500.68 530 2514.01 532 2525.01 536C2536.01 539.667 2545.01 545 2552.01 552C2559.01 558.667 2564.18 566.667 2567.51 576C2570.85 585 2572.51 594.833 2572.51 605.5C2572.51 617.5 2569.51 628.833 2563.51 639.5C2557.51 650.167 2548.85 659.667 2537.51 668C2526.51 676 2513.01 682.667 2497.01 688C2481.35 693.333 2463.51 696.833 2443.51 698.5C2445.85 708.5 2450.01 716.667 2456.01 723C2462.35 729 2471.85 732 2484.51 732C2491.85 732 2499.68 731.167 2508.01 729.5C2516.35 727.833 2524.01 726 2531.01 724C2539.35 721.667 2547.51 719 2555.51 716L2570.51 768C2561.51 772.333 2551.68 776.167 2541.01 779.5C2532.01 782.167 2521.51 784.667 2509.51 787C2497.85 789.333 2485.35 790.5 2472.01 790.5C2451.68 790.5 2434.18 787.5 2419.51 781.5C2405.18 775.5 2393.35 767.167 2384.01 756.5C2375.01 745.833 2368.35 733 2364.01 718C2360.01 702.667 2358.01 685.833 2358.01 667.5ZM2475.01 586.5C2468.68 586.5 2463.18 588.333 2458.51 592C2454.18 595.667 2450.68 600.5 2448.01 606.5C2445.35 612.5 2443.35 619.167 2442.01 626.5C2440.68 633.833 2439.85 641 2439.51 648C2449.51 647.667 2457.85 646.167 2464.51 643.5C2471.51 640.833 2477.18 637.5 2481.51 633.5C2485.85 629.5 2489.01 625.167 2491.01 620.5C2493.01 615.833 2494.01 611.5 2494.01 607.5C2494.01 601.167 2492.18 596.167 2488.51 592.5C2485.18 588.5 2480.68 586.5 2475.01 586.5ZM2689.77 530.5C2702.44 530.5 2714.1 531.667 2724.77 534C2735.77 536 2745.44 538.333 2753.77 541C2763.44 544.333 2772.27 547.833 2780.27 551.5L2755.27 607.5C2752.6 606.167 2749.1 604.5 2744.77 602.5C2740.77 600.5 2736.27 598.5 2731.27 596.5C2726.6 594.5 2721.6 592.833 2716.27 591.5C2710.94 590.167 2705.77 589.5 2700.77 589.5C2695.44 589.5 2690.94 590.667 2687.27 593C2683.6 595.333 2681.77 599 2681.77 604C2681.77 609.333 2685.1 614.667 2691.77 620C2698.77 625 2707.94 629.833 2719.27 634.5C2739.27 642.833 2754.6 652.833 2765.27 664.5C2776.27 675.833 2781.77 691.167 2781.77 710.5C2781.77 721.167 2779.77 731.5 2775.77 741.5C2772.1 751.167 2766.44 759.667 2758.77 767C2751.44 774.333 2742.1 780.167 2730.77 784.5C2719.44 788.833 2706.44 791 2691.77 791C2680.1 791 2669.1 790.167 2658.77 788.5C2648.77 786.833 2639.44 784.833 2630.77 782.5C2622.44 779.833 2614.94 777.333 2608.27 775C2601.6 772.333 2596.27 770 2592.27 768L2618.27 710.5C2619.94 711.167 2622.77 712.667 2626.77 715C2631.1 717.333 2635.94 719.667 2641.27 722C2646.94 724.333 2652.77 726.5 2658.77 728.5C2665.1 730.167 2671.1 731 2676.77 731C2683.77 731 2689.44 729.667 2693.77 727C2698.44 724.333 2700.77 720.333 2700.77 715C2700.77 708.667 2697.94 703 2692.27 698C2686.94 693 2679.94 688.833 2671.27 685.5C2646.27 675.5 2628.27 664.333 2617.27 652C2606.6 639.333 2601.27 623.667 2601.27 605C2601.27 594.333 2603.27 584.5 2607.27 575.5C2611.27 566.5 2617.1 558.667 2624.77 552C2632.44 545.333 2641.6 540.167 2652.27 536.5C2663.27 532.5 2675.77 530.5 2689.77 530.5ZM2901.2 530.5C2913.86 530.5 2925.53 531.667 2936.2 534C2947.2 536 2956.86 538.333 2965.2 541C2974.86 544.333 2983.7 547.833 2991.7 551.5L2966.7 607.5C2964.03 606.167 2960.53 604.5 2956.2 602.5C2952.2 600.5 2947.7 598.5 2942.7 596.5C2938.03 594.5 2933.03 592.833 2927.7 591.5C2922.36 590.167 2917.2 589.5 2912.2 589.5C2906.86 589.5 2902.36 590.667 2898.7 593C2895.03 595.333 2893.2 599 2893.2 604C2893.2 609.333 2896.53 614.667 2903.2 620C2910.2 625 2919.36 629.833 2930.7 634.5C2950.7 642.833 2966.03 652.833 2976.7 664.5C2987.7 675.833 2993.2 691.167 2993.2 710.5C2993.2 721.167 2991.2 731.5 2987.2 741.5C2983.53 751.167 2977.86 759.667 2970.2 767C2962.86 774.333 2953.53 780.167 2942.2 784.5C2930.86 788.833 2917.86 791 2903.2 791C2891.53 791 2880.53 790.167 2870.2 788.5C2860.2 786.833 2850.86 784.833 2842.2 782.5C2833.86 779.833 2826.36 777.333 2819.7 775C2813.03 772.333 2807.7 770 2803.7 768L2829.7 710.5C2831.36 711.167 2834.2 712.667 2838.2 715C2842.53 717.333 2847.36 719.667 2852.7 722C2858.36 724.333 2864.2 726.5 2870.2 728.5C2876.53 730.167 2882.53 731 2888.2 731C2895.2 731 2900.86 729.667 2905.2 727C2909.86 724.333 2912.2 720.333 2912.2 715C2912.2 708.667 2909.36 703 2903.7 698C2898.36 693 2891.36 688.833 2882.7 685.5C2857.7 675.5 2839.7 664.333 2828.7 652C2818.03 639.333 2812.7 623.667 2812.7 605C2812.7 594.333 2814.7 584.5 2818.7 575.5C2822.7 566.5 2828.53 558.667 2836.2 552C2843.86 545.333 2853.03 540.167 2863.7 536.5C2874.7 532.5 2887.2 530.5 2901.2 530.5Z" fill="white"/>
</svg>
