<svg width="946" height="826" viewBox="0 0 946 826" fill="none" xmlns="http://www.w3.org/2000/svg">
<path d="M408.971 1.70477C341.912 4.6524 289.038 17.7327 235.795 43.8933C151.787 85.5292 85.4642 152.404 43.2756 238.255C3.48205 319.132 -9.04555 406.641 6.42973 496.177C27.4319 617.952 107.756 727.385 222.347 789.839L236.532 797.576L241.875 789.654C248.139 780.627 275.589 737.517 325.147 659.22C344.122 629.375 369.178 589.95 380.784 571.711C422.973 505.572 462.766 442.566 468.109 433.539L473.451 424.327L474.004 624.585L474.373 825.026H543.09H611.992L613.097 758.335C613.834 721.674 614.387 652.219 614.387 603.951V516.074L544.38 469.463L474.373 422.853L470.32 426.354C465.714 430.407 418.551 473.516 353.702 533.023C329.568 555.314 305.25 577.606 299.907 582.396C288.485 592.897 289.038 593.081 270.431 574.106C253.481 556.972 246.112 547.393 235.795 529.154C202.818 471.49 198.765 403.509 224.557 339.397C242.059 295.551 283.142 250.967 323.673 231.807L335.279 226.281L336.2 278.602L337.122 330.923L403.997 375.506C440.843 400.009 471.241 419.721 471.793 419.353C472.162 418.8 473.083 324.843 473.82 210.253L474.925 2.07324L462.213 0.967834C455.213 0.230896 447.107 -0.137512 443.975 0.0466919C441.027 0.0466919 425.183 0.78363 408.971 1.70477Z" fill="white"/>
<path d="M710.739 45.1828C708.712 47.9463 689.921 78.1599 668.735 112.058C647.732 145.956 610.702 205.278 586.753 243.782C562.803 282.286 531.299 332.765 516.745 356.162C502.191 379.375 487.084 403.325 483.031 409.405C478.978 415.3 476.583 419.906 477.504 419.537C478.61 419.169 515.824 384.349 560.223 342.161C604.807 300.156 645.153 262.021 649.943 257.599L658.786 249.493L672.419 263.679C715.713 308.447 736.9 356.346 741.505 419.721C742.611 433.907 743.348 526.022 743.348 634.349L743.163 824.105L833.067 824.658C882.441 825.026 928.13 824.658 934.578 824.105L946 822.816V603.398C946 395.772 945.816 382.507 942.5 359.478C924.814 239.729 858.123 135.64 753.48 64.3427C743.348 57.342 730.452 49.0516 724.556 45.9197L714.239 40.0244L710.739 45.1828Z" fill="white"/>
</svg>
