<svg width="3090" height="828" viewBox="0 0 3090 828" fill="none" xmlns="http://www.w3.org/2000/svg">
<path d="M408.971 1.70477C341.912 4.6524 289.038 17.7327 235.795 43.8933C151.787 85.5292 85.4642 152.404 43.2756 238.255C3.48205 319.132 -9.04555 406.641 6.42973 496.177C27.4319 617.952 107.756 727.385 222.347 789.839L236.532 797.576L241.875 789.654C248.139 780.627 275.589 737.517 325.147 659.22C344.122 629.375 369.178 589.95 380.784 571.711C422.973 505.572 462.766 442.566 468.109 433.539L473.451 424.327L474.004 624.585L474.373 825.026H543.09H611.992L613.097 758.335C613.834 721.674 614.387 652.219 614.387 603.951V516.074L544.38 469.463L474.373 422.853L470.32 426.354C465.714 430.407 418.551 473.516 353.702 533.023C329.568 555.314 305.25 577.606 299.907 582.396C288.485 592.897 289.038 593.081 270.431 574.106C253.481 556.972 246.112 547.393 235.795 529.154C202.818 471.49 198.765 403.509 224.557 339.397C242.059 295.551 283.142 250.967 323.673 231.807L335.279 226.281L336.2 278.602L337.122 330.923L403.997 375.506C440.843 400.009 471.241 419.721 471.793 419.353C472.162 418.8 473.083 324.843 473.82 210.253L474.925 2.07324L462.213 0.967834C455.213 0.230896 447.107 -0.137512 443.975 0.0466919C441.027 0.0466919 425.183 0.78363 408.971 1.70477Z" fill="white"/>
<path d="M710.739 45.1823C708.712 47.9458 689.921 78.1594 668.735 112.058C647.732 145.956 610.702 205.278 586.753 243.782C562.803 282.286 531.299 332.765 516.745 356.162C502.191 379.375 487.084 403.324 483.031 409.404C478.978 415.299 476.583 419.905 477.504 419.537C478.61 419.168 515.824 384.349 560.223 342.16C604.807 300.156 645.153 262.02 649.943 257.599L658.786 249.493L672.419 263.679C715.713 308.446 736.9 356.346 741.505 419.721C742.611 433.907 743.348 526.021 743.348 634.348L743.163 824.105L833.067 824.657C882.441 825.026 928.13 824.657 934.578 824.105L946 822.815V603.398C946 395.771 945.816 382.507 942.5 359.478C924.814 239.729 858.123 135.639 753.48 64.3422C743.348 57.3415 730.452 49.0511 724.556 45.9193L714.239 40.0239L710.739 45.1823Z" fill="white"/>
<path d="M1316.68 159.2C1306.88 147.3 1297.43 139.425 1288.33 135.575C1279.23 131.375 1270.13 129.275 1261.03 129.275C1238.28 129.275 1221.65 139.95 1211.15 161.3C1201 182.3 1195.93 211.525 1195.93 248.975C1195.93 266.825 1196.98 283.275 1199.08 298.325C1201.53 313.025 1205.55 325.625 1211.15 336.125C1216.75 346.625 1224.1 354.85 1233.2 360.8C1242.65 366.75 1254.38 369.725 1268.38 369.725C1280.63 369.725 1292.53 368.325 1304.08 365.525C1315.98 362.375 1326.83 358.875 1336.63 355.025L1355.53 413.825C1344.68 418.375 1331.03 422.4 1314.58 425.9C1298.13 429.4 1279.23 431.15 1257.88 431.15C1203.98 431.15 1164.6 415.925 1139.75 385.475C1114.9 354.675 1102.48 311.1 1102.48 254.75C1102.48 227.45 1105.63 202.425 1111.93 179.675C1118.58 156.925 1128.38 137.325 1141.33 120.875C1154.63 104.075 1171.08 91.125 1190.68 82.025C1210.63 72.575 1234.08 67.85 1261.03 67.85C1275.03 67.85 1287.28 69.075 1297.78 71.525C1308.63 73.975 1318.08 77.3 1326.13 81.5C1334.18 85.35 1341.18 89.9 1347.12 95.15C1353.42 100.4 1359.03 105.825 1363.93 111.425L1316.68 159.2ZM1528.23 240.05C1524.38 240.05 1520.18 241.1 1515.63 243.2C1511.08 245.3 1506.71 248.625 1502.51 253.175C1498.31 257.375 1494.81 262.975 1492.01 269.975C1489.21 276.625 1487.81 284.675 1487.81 294.125V428H1404.86V291.5C1404.86 270.5 1403.28 253.175 1400.13 239.525C1397.33 225.525 1394.01 214.15 1390.16 205.4C1385.96 195.6 1381.23 187.725 1375.98 181.775L1442.66 160.775C1445.46 164.275 1448.43 168.3 1451.58 172.85C1454.03 176.7 1456.66 181.6 1459.46 187.55C1462.26 193.5 1464.53 200.325 1466.28 208.025C1475.03 191.225 1485.36 179.15 1497.26 171.8C1509.51 164.45 1523.86 160.775 1540.31 160.775C1547.66 160.775 1554.13 161.475 1559.73 162.875C1565.68 163.925 1570.58 165.15 1574.43 166.55L1552.91 245.825C1550.46 244.425 1547.13 243.2 1542.93 242.15C1539.08 240.75 1534.18 240.05 1528.23 240.05ZM1574.52 303.575C1574.52 280.125 1577.84 259.475 1584.49 241.625C1591.49 223.425 1600.94 208.375 1612.84 196.475C1625.09 184.225 1639.27 174.95 1655.37 168.65C1671.47 162.35 1688.97 159.2 1707.87 159.2C1724.32 159.2 1738.32 161.3 1749.87 165.5C1761.42 169.35 1770.87 174.95 1778.22 182.3C1785.57 189.3 1790.99 197.7 1794.49 207.5C1797.99 216.95 1799.74 227.275 1799.74 238.475C1799.74 251.075 1796.59 262.975 1790.29 274.175C1783.99 285.375 1774.89 295.35 1762.99 304.1C1751.44 312.5 1737.27 319.5 1720.47 325.1C1704.02 330.7 1685.29 334.375 1664.29 336.125C1666.74 346.625 1671.12 355.2 1677.42 361.85C1684.07 368.15 1694.04 371.3 1707.34 371.3C1715.04 371.3 1723.27 370.425 1732.02 368.675C1740.77 366.925 1748.82 365 1756.17 362.9C1764.92 360.45 1773.49 357.65 1781.89 354.5L1797.64 409.1C1788.19 413.65 1777.87 417.675 1766.67 421.175C1757.22 423.975 1746.19 426.6 1733.59 429.05C1721.34 431.5 1708.22 432.725 1694.22 432.725C1672.87 432.725 1654.49 429.575 1639.09 423.275C1624.04 416.975 1611.62 408.225 1601.82 397.025C1592.37 385.825 1585.37 372.35 1580.82 356.6C1576.62 340.5 1574.52 322.825 1574.52 303.575ZM1697.37 218.525C1690.72 218.525 1684.94 220.45 1680.04 224.3C1675.49 228.15 1671.82 233.225 1669.02 239.525C1666.22 245.825 1664.12 252.825 1662.72 260.525C1661.32 268.225 1660.44 275.75 1660.09 283.1C1670.59 282.75 1679.34 281.175 1686.34 278.375C1693.69 275.575 1699.64 272.075 1704.19 267.875C1708.74 263.675 1712.07 259.125 1714.17 254.225C1716.27 249.325 1717.32 244.775 1717.32 240.575C1717.32 233.925 1715.39 228.675 1711.54 224.825C1708.04 220.625 1703.32 218.525 1697.37 218.525ZM2061.99 301.475C2061.99 322.475 2063.39 339.975 2066.19 353.975C2068.99 367.975 2072.32 379.175 2076.17 387.575C2080.37 397.725 2085.27 405.6 2090.87 411.2L2024.19 432.2C2020.34 428.7 2016.84 424.325 2013.69 419.075C2010.89 414.525 2008.09 409.1 2005.29 402.8C2002.84 396.15 2000.74 388.45 1998.99 379.7C1993.04 396.15 1984.29 408.925 1972.74 418.025C1961.19 426.775 1945.97 431.15 1927.07 431.15C1909.92 431.15 1894.87 428 1881.92 421.7C1869.32 415.4 1858.82 406.65 1850.42 395.45C1842.02 383.9 1835.72 370.075 1831.52 353.975C1827.67 337.875 1825.74 320.025 1825.74 300.425C1825.74 280.475 1828.89 261.925 1835.19 244.775C1841.84 227.625 1850.94 212.925 1862.49 200.675C1874.04 188.075 1887.87 178.275 1903.97 171.275C1920.07 164.275 1937.92 160.775 1957.52 160.775C1968.37 160.775 1979.92 161.65 1992.17 163.4C2004.42 164.8 2015.62 166.55 2025.77 168.65C2035.92 170.4 2044.32 172.15 2050.97 173.9C2057.97 175.3 2061.64 176 2061.99 176V301.475ZM1940.72 370.25C1945.97 370.25 1950.87 367.975 1955.42 363.425C1960.32 358.875 1964.52 352.75 1968.02 345.05C1971.52 337.35 1974.14 328.6 1975.89 318.8C1977.99 308.65 1979.04 297.975 1979.04 286.775V225.875C1976.59 224.825 1973.09 223.95 1968.54 223.25C1964.34 222.2 1960.67 221.675 1957.52 221.675C1949.12 221.675 1942.12 223.6 1936.52 227.45C1930.92 230.95 1926.37 236.025 1922.87 242.675C1919.72 248.975 1917.44 256.675 1916.04 265.775C1914.64 274.875 1913.94 284.675 1913.94 295.175C1913.94 304.975 1914.12 314.425 1914.47 323.525C1914.82 332.275 1915.87 340.15 1917.62 347.15C1919.72 354.15 1922.52 359.75 1926.02 363.95C1929.52 368.15 1934.42 370.25 1940.72 370.25ZM2102.39 166.55H2145.44L2154.36 112.475L2226.29 96.725V166.55H2288.24L2278.26 227.45H2226.29V344.525C2226.29 359.925 2234.34 367.625 2250.44 367.625C2259.19 367.625 2267.59 366.75 2275.64 365C2279.84 363.95 2284.04 362.9 2288.24 361.85L2302.41 417.5C2295.41 419.95 2285.61 422.75 2273.01 425.9C2260.76 428.7 2245.71 430.1 2227.86 430.1C2201.61 430.1 2180.96 424.675 2165.91 413.825C2151.21 402.975 2143.86 384.6 2143.86 358.7V227.45H2102.39V166.55ZM2396.7 430.1C2376.75 430.1 2360.65 425.025 2348.4 414.875C2336.15 404.375 2330.03 389.675 2330.03 370.775V164.45H2412.98V347.15C2412.98 355.2 2414.2 360.625 2416.65 363.425C2419.1 366.225 2422.78 367.625 2427.68 367.625C2430.48 367.625 2433.28 367.45 2436.08 367.1C2438.88 366.4 2440.63 365.875 2441.33 365.525L2448.68 417.5C2448.33 417.85 2446.75 418.725 2443.95 420.125C2441.15 421.175 2437.48 422.575 2432.93 424.325C2428.38 425.725 2422.95 426.95 2416.65 428C2410.35 429.4 2403.7 430.1 2396.7 430.1ZM2372.55 37.925C2387.25 37.925 2398.45 42.3 2406.15 51.05C2413.85 59.8 2417.7 70.825 2417.7 84.125C2417.7 97.775 2413.68 109.15 2405.63 118.25C2397.93 127.35 2386.2 131.9 2370.45 131.9C2355.75 131.9 2344.38 127.525 2336.33 118.775C2328.63 109.675 2324.78 99 2324.78 86.75C2324.78 72.75 2328.8 61.2 2336.85 52.1C2344.9 42.65 2356.8 37.925 2372.55 37.925ZM2702.33 164.45C2703.73 170.05 2705.13 179.15 2706.53 191.75C2707.93 204.35 2708.63 217.475 2708.63 231.125C2708.63 267.525 2705.66 298.5 2699.71 324.05C2694.11 349.25 2685.53 369.9 2673.98 386C2662.43 401.75 2647.73 413.3 2629.88 420.65C2612.38 427.65 2591.56 431.15 2567.41 431.15C2537.31 431.15 2515.08 422.575 2500.73 405.425C2486.73 388.275 2479.73 365.525 2479.73 337.175V164.45H2562.68V335.6C2562.68 345.75 2564.08 354.5 2566.88 361.85C2569.68 368.85 2574.58 372.35 2581.58 372.35C2589.98 372.35 2596.98 368.325 2602.58 360.275C2608.18 351.875 2612.56 341.2 2615.71 328.25C2619.21 314.95 2621.66 300.25 2623.06 284.15C2624.81 267.7 2625.68 251.425 2625.68 235.325C2625.68 217.825 2624.81 203.475 2623.06 192.275C2621.66 180.725 2620.43 171.45 2619.38 164.45H2702.33ZM2742.44 303.575C2742.44 280.125 2745.76 259.475 2752.41 241.625C2759.41 223.425 2768.86 208.375 2780.76 196.475C2793.01 184.225 2807.19 174.95 2823.29 168.65C2839.39 162.35 2856.89 159.2 2875.79 159.2C2892.24 159.2 2906.24 161.3 2917.79 165.5C2929.34 169.35 2938.79 174.95 2946.14 182.3C2953.49 189.3 2958.91 197.7 2962.41 207.5C2965.91 216.95 2967.66 227.275 2967.66 238.475C2967.66 251.075 2964.51 262.975 2958.21 274.175C2951.91 285.375 2942.81 295.35 2930.91 304.1C2919.36 312.5 2905.19 319.5 2888.39 325.1C2871.94 330.7 2853.21 334.375 2832.21 336.125C2834.66 346.625 2839.04 355.2 2845.34 361.85C2851.99 368.15 2861.96 371.3 2875.26 371.3C2882.96 371.3 2891.19 370.425 2899.94 368.675C2908.69 366.925 2916.74 365 2924.09 362.9C2932.84 360.45 2941.41 357.65 2949.81 354.5L2965.56 409.1C2956.11 413.65 2945.79 417.675 2934.59 421.175C2925.14 423.975 2914.11 426.6 2901.51 429.05C2889.26 431.5 2876.14 432.725 2862.14 432.725C2840.79 432.725 2822.41 429.575 2807.01 423.275C2791.96 416.975 2779.54 408.225 2769.74 397.025C2760.29 385.825 2753.29 372.35 2748.74 356.6C2744.54 340.5 2742.44 322.825 2742.44 303.575ZM2865.29 218.525C2858.64 218.525 2852.86 220.45 2847.96 224.3C2843.41 228.15 2839.74 233.225 2836.94 239.525C2834.14 245.825 2832.04 252.825 2830.64 260.525C2829.24 268.225 2828.36 275.75 2828.01 283.1C2838.51 282.75 2847.26 281.175 2854.26 278.375C2861.61 275.575 2867.56 272.075 2872.11 267.875C2876.66 263.675 2879.99 259.125 2882.09 254.225C2884.19 249.325 2885.24 244.775 2885.24 240.575C2885.24 233.925 2883.31 228.675 2879.46 224.825C2875.96 220.625 2871.24 218.525 2865.29 218.525ZM1339.78 822H1274.15L1230.58 721.2C1229.53 718.4 1227.43 713.325 1224.28 705.975C1221.48 698.275 1218.15 689.7 1214.3 680.25C1210.8 670.45 1207.13 660.475 1203.28 650.325C1199.43 640.175 1195.93 630.9 1192.78 622.5C1192.78 631.6 1192.78 642.1 1192.78 654C1192.78 665.9 1192.78 677.975 1192.78 690.225C1192.78 702.475 1192.6 714.025 1192.25 724.875C1192.25 735.725 1192.08 744.3 1191.73 750.6L1189.1 822H1109.3L1130.3 466.575H1204.85L1286.75 671.325C1289.2 677.625 1292.35 686.55 1296.2 698.1C1300.4 709.3 1304.43 721.55 1308.28 734.85C1312.13 721.9 1315.98 709.825 1319.83 698.625C1324.03 687.075 1327.53 677.975 1330.33 671.325L1412.23 466.575H1485.2L1506.2 822H1424.83L1421.68 750.6C1421.33 743.95 1420.98 735.2 1420.63 724.35C1420.63 713.5 1420.63 702.125 1420.63 690.225C1420.63 677.975 1420.63 665.9 1420.63 654C1420.98 641.75 1421.15 631.25 1421.15 622.5C1418.35 629.85 1415.2 638.25 1411.7 647.7C1408.55 656.8 1405.23 665.725 1401.73 674.475C1398.23 683.225 1394.9 691.45 1391.75 699.15C1388.6 706.5 1386.15 712.275 1384.4 716.475L1339.78 822ZM1781.03 695.475C1781.03 716.475 1782.43 733.975 1785.23 747.975C1788.03 761.975 1791.36 773.175 1795.21 781.575C1799.41 791.725 1804.31 799.6 1809.91 805.2L1743.23 826.2C1739.38 822.7 1735.88 818.325 1732.73 813.075C1729.93 808.525 1727.13 803.1 1724.33 796.8C1721.88 790.15 1719.78 782.45 1718.03 773.7C1712.08 790.15 1703.33 802.925 1691.78 812.025C1680.23 820.775 1665.01 825.15 1646.11 825.15C1628.96 825.15 1613.91 822 1600.96 815.7C1588.36 809.4 1577.86 800.65 1569.46 789.45C1561.06 777.9 1554.76 764.075 1550.56 747.975C1546.71 731.875 1544.78 714.025 1544.78 694.425C1544.78 674.475 1547.93 655.925 1554.23 638.775C1560.88 621.625 1569.98 606.925 1581.53 594.675C1593.08 582.075 1606.91 572.275 1623.01 565.275C1639.11 558.275 1656.96 554.775 1676.56 554.775C1687.41 554.775 1698.96 555.65 1711.21 557.4C1723.46 558.8 1734.66 560.55 1744.81 562.65C1754.96 564.4 1763.36 566.15 1770.01 567.9C1777.01 569.3 1780.68 570 1781.03 570V695.475ZM1659.76 764.25C1665.01 764.25 1669.91 761.975 1674.46 757.425C1679.36 752.875 1683.56 746.75 1687.06 739.05C1690.56 731.35 1693.18 722.6 1694.93 712.8C1697.03 702.65 1698.08 691.975 1698.08 680.775V619.875C1695.63 618.825 1692.13 617.95 1687.58 617.25C1683.38 616.2 1679.71 615.675 1676.56 615.675C1668.16 615.675 1661.16 617.6 1655.56 621.45C1649.96 624.95 1645.41 630.025 1641.91 636.675C1638.76 642.975 1636.48 650.675 1635.08 659.775C1633.68 668.875 1632.98 678.675 1632.98 689.175C1632.98 698.975 1633.16 708.425 1633.51 717.525C1633.86 726.275 1634.91 734.15 1636.66 741.15C1638.76 748.15 1641.56 753.75 1645.06 757.95C1648.56 762.15 1653.46 764.25 1659.76 764.25ZM2028.8 826.2L2025.65 822.525C2023.55 820.425 2021.1 817.1 2018.3 812.55C2015.5 808 2012.7 802.575 2009.9 796.275C2007.1 789.625 2005 782.1 2003.6 773.7C1997.65 790.15 1988.9 802.925 1977.35 812.025C1965.8 820.775 1950.58 825.15 1931.68 825.15C1914.53 825.15 1899.48 822 1886.53 815.7C1873.93 809.4 1863.43 800.65 1855.03 789.45C1846.63 777.9 1840.33 764.075 1836.13 747.975C1832.28 731.875 1830.35 714.025 1830.35 694.425C1830.35 674.475 1833.5 655.925 1839.8 638.775C1846.45 621.625 1855.55 606.925 1867.1 594.675C1878.65 582.075 1892.48 572.275 1908.58 565.275C1924.68 558.275 1942.53 554.775 1962.13 554.775C1965.28 554.775 1968.6 554.95 1972.1 555.3C1975.95 555.65 1979.8 556 1983.65 556.35V441.9L2066.6 455.55V695.475C2066.6 716.125 2068 733.45 2070.8 747.45C2073.95 761.45 2077.28 772.825 2080.78 781.575C2084.28 789.975 2087.6 795.925 2090.75 799.425L2095.48 805.2L2028.8 826.2ZM1945.33 764.25C1950.58 764.25 1955.48 761.975 1960.03 757.425C1964.93 752.875 1969.13 746.75 1972.63 739.05C1976.13 731.35 1978.75 722.6 1980.5 712.8C1982.6 702.65 1983.65 691.975 1983.65 680.775V619.875C1981.2 618.825 1977.7 617.95 1973.15 617.25C1968.95 616.2 1965.28 615.675 1962.13 615.675C1953.73 615.675 1946.73 617.6 1941.13 621.45C1935.53 624.95 1930.98 630.025 1927.48 636.675C1924.33 642.975 1922.05 650.675 1920.65 659.775C1919.25 668.875 1918.55 678.675 1918.55 689.175C1918.55 698.975 1918.73 708.425 1919.08 717.525C1919.43 726.275 1920.48 734.15 1922.23 741.15C1924.33 748.15 1927.13 753.75 1930.63 757.95C1934.13 762.15 1939.03 764.25 1945.33 764.25ZM2283.4 822V658.2C2283.4 645.95 2281.83 636.15 2278.68 628.8C2275.88 621.1 2270.45 617.25 2262.4 617.25C2252.6 617.25 2243.5 623.725 2235.1 636.675C2226.7 649.275 2222.5 667.125 2222.5 690.225V822H2139.55V685.5C2139.55 664.5 2137.98 647.175 2134.83 633.525C2132.03 619.525 2128.7 608.15 2124.85 599.4C2120.65 589.6 2115.93 581.725 2110.68 575.775L2177.35 554.775C2180.5 558.275 2183.65 562.3 2186.8 566.85C2189.6 570.7 2192.23 575.775 2194.68 582.075C2197.48 588.025 2199.75 594.85 2201.5 602.55C2210.6 586.1 2223.03 574.025 2238.78 566.325C2254.88 558.625 2272.38 554.775 2291.28 554.775C2318.58 554.775 2338 563.175 2349.55 579.975C2361.1 596.425 2366.88 618.475 2366.88 646.125V822H2283.4ZM2408.16 697.575C2408.16 674.125 2411.49 653.475 2418.14 635.625C2425.14 617.425 2434.59 602.375 2446.49 590.475C2458.74 578.225 2472.91 568.95 2489.01 562.65C2505.11 556.35 2522.61 553.2 2541.51 553.2C2557.96 553.2 2571.96 555.3 2583.51 559.5C2595.06 563.35 2604.51 568.95 2611.86 576.3C2619.21 583.3 2624.64 591.7 2628.14 601.5C2631.64 610.95 2633.39 621.275 2633.39 632.475C2633.39 645.075 2630.24 656.975 2623.94 668.175C2617.64 679.375 2608.54 689.35 2596.64 698.1C2585.09 706.5 2570.91 713.5 2554.11 719.1C2537.66 724.7 2518.94 728.375 2497.94 730.125C2500.39 740.625 2504.76 749.2 2511.06 755.85C2517.71 762.15 2527.69 765.3 2540.99 765.3C2548.69 765.3 2556.91 764.425 2565.66 762.675C2574.41 760.925 2582.46 759 2589.81 756.9C2598.56 754.45 2607.14 751.65 2615.54 748.5L2631.29 803.1C2621.84 807.65 2611.51 811.675 2600.31 815.175C2590.86 817.975 2579.84 820.6 2567.24 823.05C2554.99 825.5 2541.86 826.725 2527.86 826.725C2506.51 826.725 2488.14 823.575 2472.74 817.275C2457.69 810.975 2445.26 802.225 2435.46 791.025C2426.01 779.825 2419.01 766.35 2414.46 750.6C2410.26 734.5 2408.16 716.825 2408.16 697.575ZM2531.01 612.525C2524.36 612.525 2518.59 614.45 2513.69 618.3C2509.14 622.15 2505.46 627.225 2502.66 633.525C2499.86 639.825 2497.76 646.825 2496.36 654.525C2494.96 662.225 2494.09 669.75 2493.74 677.1C2504.24 676.75 2512.99 675.175 2519.99 672.375C2527.34 669.575 2533.29 666.075 2537.84 661.875C2542.39 657.675 2545.71 653.125 2547.81 648.225C2549.91 643.325 2550.96 638.775 2550.96 634.575C2550.96 627.925 2549.04 622.675 2545.19 618.825C2541.69 614.625 2536.96 612.525 2531.01 612.525ZM2756.51 553.725C2769.81 553.725 2782.06 554.95 2793.26 557.4C2804.81 559.5 2814.96 561.95 2823.71 564.75C2833.86 568.25 2843.13 571.925 2851.53 575.775L2825.28 634.575C2822.48 633.175 2818.81 631.425 2814.26 629.325C2810.06 627.225 2805.33 625.125 2800.08 623.025C2795.18 620.925 2789.93 619.175 2784.33 617.775C2778.73 616.375 2773.31 615.675 2768.06 615.675C2762.46 615.675 2757.73 616.9 2753.88 619.35C2750.03 621.8 2748.11 625.65 2748.11 630.9C2748.11 636.5 2751.61 642.1 2758.61 647.7C2765.96 652.95 2775.58 658.025 2787.48 662.925C2808.48 671.675 2824.58 682.175 2835.78 694.425C2847.33 706.325 2853.11 722.425 2853.11 742.725C2853.11 753.925 2851.01 764.775 2846.81 775.275C2842.96 785.425 2837.01 794.35 2828.96 802.05C2821.26 809.75 2811.46 815.875 2799.56 820.425C2787.66 824.975 2774.01 827.25 2758.61 827.25C2746.36 827.25 2734.81 826.375 2723.96 824.625C2713.46 822.875 2703.66 820.775 2694.56 818.325C2685.81 815.525 2677.93 812.9 2670.93 810.45C2663.93 807.65 2658.33 805.2 2654.13 803.1L2681.43 742.725C2683.18 743.425 2686.16 745 2690.36 747.45C2694.91 749.9 2699.98 752.35 2705.58 754.8C2711.53 757.25 2717.66 759.525 2723.96 761.625C2730.61 763.375 2736.91 764.25 2742.86 764.25C2750.21 764.25 2756.16 762.85 2760.71 760.05C2765.61 757.25 2768.06 753.05 2768.06 747.45C2768.06 740.8 2765.08 734.85 2759.13 729.6C2753.53 724.35 2746.18 719.975 2737.08 716.475C2710.83 705.975 2691.93 694.25 2680.38 681.3C2669.18 668 2663.58 651.55 2663.58 631.95C2663.58 620.75 2665.68 610.425 2669.88 600.975C2674.08 591.525 2680.21 583.3 2688.26 576.3C2696.31 569.3 2705.93 563.875 2717.13 560.025C2728.68 555.825 2741.81 553.725 2756.51 553.725ZM2978.51 553.725C2991.81 553.725 3004.06 554.95 3015.26 557.4C3026.81 559.5 3036.96 561.95 3045.71 564.75C3055.86 568.25 3065.13 571.925 3073.53 575.775L3047.28 634.575C3044.48 633.175 3040.81 631.425 3036.26 629.325C3032.06 627.225 3027.33 625.125 3022.08 623.025C3017.18 620.925 3011.93 619.175 3006.33 617.775C3000.73 616.375 2995.31 615.675 2990.06 615.675C2984.46 615.675 2979.73 616.9 2975.88 619.35C2972.03 621.8 2970.11 625.65 2970.11 630.9C2970.11 636.5 2973.61 642.1 2980.61 647.7C2987.96 652.95 2997.58 658.025 3009.48 662.925C3030.48 671.675 3046.58 682.175 3057.78 694.425C3069.33 706.325 3075.11 722.425 3075.11 742.725C3075.11 753.925 3073.01 764.775 3068.81 775.275C3064.96 785.425 3059.01 794.35 3050.96 802.05C3043.26 809.75 3033.46 815.875 3021.56 820.425C3009.66 824.975 2996.01 827.25 2980.61 827.25C2968.36 827.25 2956.81 826.375 2945.96 824.625C2935.46 822.875 2925.66 820.775 2916.56 818.325C2907.81 815.525 2899.93 812.9 2892.93 810.45C2885.93 807.65 2880.33 805.2 2876.13 803.1L2903.43 742.725C2905.18 743.425 2908.16 745 2912.36 747.45C2916.91 749.9 2921.98 752.35 2927.58 754.8C2933.53 757.25 2939.66 759.525 2945.96 761.625C2952.61 763.375 2958.91 764.25 2964.86 764.25C2972.21 764.25 2978.16 762.85 2982.71 760.05C2987.61 757.25 2990.06 753.05 2990.06 747.45C2990.06 740.8 2987.08 734.85 2981.13 729.6C2975.53 724.35 2968.18 719.975 2959.08 716.475C2932.83 705.975 2913.93 694.25 2902.38 681.3C2891.18 668 2885.58 651.55 2885.58 631.95C2885.58 620.75 2887.68 610.425 2891.88 600.975C2896.08 591.525 2902.21 583.3 2910.26 576.3C2918.31 569.3 2927.93 563.875 2939.13 560.025C2950.68 555.825 2963.81 553.725 2978.51 553.725Z" fill="white"/>
</svg>
